# xmcd
#
# Track frame offsets:
# 150
# 14300
# 33907
# 47128
# 58426
# 71916
# 85408
# 102583
# 119833
# 131233
# 144739
# 157857
#
# Disc length: 2263 seconds
#
#
# Revision: 3
# Processed by: cddbd v1.5.2PL0 Copyright (c) Steve Scherf et al.
# Submitted via: FreeRIP 2.945 
#
DISCID=b908d50c
DTITLE=Milionário and José Rico - Amor infinito - vol 13 - Vol. 13 Amor Infinito
DYEAR=1900
DGENRE=Sertanejo
TTITLE0=Minha culpa
TTITLE1=Sonhei com você
TTITLE2=Por que Recordação?
TTITLE3=Entrevista
TTITLE4=Fim da estrada
TTITLE5=Amor infinito
TTITLE6=Meu mundo vazio (sereia)
TTITLE7=Meu tesouro
TTITLE8=Segredo atroz
TTITLE9=Por favor
TTITLE10=Velho confidente
TTITLE11=Além da fronteira
EXTD=
EXTT0=
EXTT1=
EXTT2=
EXTT3=
EXTT4=
EXTT5=
EXTT6=
EXTT7=
EXTT8=
EXTT9=
EXTT10=
EXTT11=
PLAYORDER=
